<svg version="1.0" xmlns="http://www.w3.org/2000/svg" viewBox="0 0 357 225"
 preserveAspectRatio="xMidYMid meet">
<g transform="translate(0.000000,225.000000) scale(0.100000,-0.100000)" stroke="none">
<path d="M640 2234 c-176 -55 -390 -281 -535 -564 -128 -251 -138 -396 -29
-449 25 -13 35 -12 96 9 53 18 68 27 68 43 0 15 -5 18 -23 13 -12 -3 -45 -9
-73 -12 -46 -6 -53 -4 -68 17 -35 51 -14 173 51 304 107 212 283 417 466 540
77 52 94 59 147 63 59 4 61 3 94 -31 85 -90 76 -167 -95 -850 -50 -197 -89
-368 -87 -380 2 -12 11 -23 20 -25 21 -4 35 23 168 324 156 353 254 527 398
705 63 78 102 113 159 143 42 21 60 20 68 -3 3 -11 -23 -173 -59 -360 -36
-188 -75 -403 -87 -479 -33 -210 -27 -198 -130 -272 -118 -85 -237 -209 -275
-285 -26 -54 -29 -70 -29 -161 0 -95 2 -104 37 -176 74 -149 251 -278 452
-328 207 -52 439 6 644 159 265 200 519 604 726 1152 26 68 58 134 70 147 18
18 40 26 97 32 129 16 459 31 507 24 120 -17 134 -64 47 -164 -53 -61 -69
-100 -42 -100 16 0 120 98 136 127 29 56 -3 142 -64 173 -46 23 -179 24 -438
4 l-238 -18 -36 37 -36 36 72 121 c83 138 101 178 101 219 0 42 -44 91 -82 91
-60 0 -197 -129 -213 -201 -13 -59 10 -52 69 20 51 64 97 101 126 101 16 0 12
-67 -6 -103 -9 -18 -52 -86 -95 -153 -44 -66 -79 -130 -79 -141 0 -15 11 -23
41 -32 23 -7 39 -14 37 -16 -5 -6 -588 -155 -605 -155 -37 0 9 238 87 449 46
124 50 161 20 161 -12 0 -31 -6 -43 -14 -12 -8 -53 -20 -92 -27 -92 -15 -108
-24 -186 -106 -154 -159 -288 -425 -277 -550 3 -27 8 -55 12 -64 6 -13 -15
-26 -107 -67 -147 -64 -157 -67 -157 -48 0 8 43 214 95 457 52 242 95 452 95
465 0 32 -63 100 -106 114 -120 40 -292 -156 -515 -585 -73 -140 -79 -147 -79
-110 0 22 12 94 26 160 68 316 74 396 39 495 -42 120 -150 167 -285 124z
m1425 -394 c7 -11 -102 -232 -160 -320 -23 -36 -67 -92 -98 -125 l-56 -60 -1
51 c0 97 81 284 164 380 59 67 133 103 151 74z m-35 -358 c-20 -110 -25 -121
-49 -132 -41 -19 -134 -50 -138 -46 -2 2 32 53 76 115 44 61 90 129 102 151
12 22 24 38 27 35 2 -2 -6 -58 -18 -123z m653 -29 c4 -3 -14 -45 -40 -92 -148
-274 -294 -425 -431 -447 -48 -7 -76 6 -102 49 -17 28 -20 51 -20 174 l0 143
58 29 c70 35 181 70 372 115 169 40 155 38 163 29z m-651 -506 c48 -72 139
-115 215 -101 57 10 141 58 211 121 l64 56 -46 -91 c-116 -231 -262 -446 -403
-593 -143 -148 -273 -230 -422 -265 -237 -56 -559 82 -657 283 -25 50 -29 69
-29 143 0 93 13 128 82 223 33 45 212 201 221 193 2 -2 -4 -100 -13 -218 -32
-411 -24 -500 48 -534 53 -26 83 -12 168 75 85 87 135 174 125 216 -13 50 -40
30 -141 -105 -103 -139 -109 -142 -135 -80 -16 39 -8 383 14 560 18 154 13
146 142 220 105 60 251 124 400 174 l129 44 5 -147 c4 -117 9 -152 22 -174z"/>
</g>
</svg>
